<svg width="50" height="50" viewBox="0 0 88 88" fill="none" xmlns="http://www.w3.org/2000/svg">
<path fill-rule="evenodd" clip-rule="evenodd" d="M44.0953 7.33325C23.8957 7.33325 7.524 23.7049 7.524 43.9046C7.524 60.0599 17.9997 73.7696 32.5343 78.6096C34.364 78.9396 35.024 77.8139 35.024 76.8459C35.024 75.9769 34.9947 73.6742 34.9837 70.6273C24.8087 72.8346 22.66 65.7213 22.66 65.7213C21.0027 61.4973 18.601 60.3716 18.601 60.3716C15.2827 58.1019 18.854 58.1533 18.854 58.1533C22.528 58.4099 24.453 61.9226 24.453 61.9226C27.7163 67.5106 33.0183 65.8973 35.0937 64.9622C35.4273 62.5972 36.3807 60.9839 37.422 60.0709C29.304 59.1506 20.768 56.0119 20.768 41.9943C20.768 38.0086 22.1943 34.7379 24.5227 32.1859C24.1523 31.2583 22.8873 27.5366 24.8857 22.5059C24.8857 22.5059 27.9547 21.5196 34.9397 26.2496C37.9228 25.438 41.0001 25.0238 44.0917 25.0176C47.1833 25.0226 50.2607 25.4369 53.2437 26.2496C60.2323 21.5159 63.2977 22.5059 63.2977 22.5059C65.296 27.5366 64.042 31.2583 63.6607 32.1859C66.0073 34.7379 67.4153 38.0049 67.4153 41.9943C67.4153 56.0486 58.872 59.1359 50.7247 60.0416C52.0263 61.1709 53.1997 63.4003 53.1997 66.8103C53.1997 71.7016 53.1557 75.6469 53.1557 76.8459C53.1557 77.8249 53.8083 78.9616 55.6747 78.6023C70.202 73.7549 80.6667 60.0563 80.6667 43.9046C80.6667 23.7049 64.295 7.33325 44.0953 7.33325Z" fill="white"/>
</svg>
