<svg width="50" height="50" viewBox="0 0 88 88" fill="none" xmlns="http://www.w3.org/2000/svg">
<path d="M76.8057 30.4515C76.7687 27.6745 76.2488 24.925 75.2693 22.3262C74.42 20.1341 73.1226 18.1432 71.4603 16.4809C69.7979 14.8185 67.8071 13.5212 65.615 12.6718C63.0496 11.7088 60.3393 11.1881 57.5997 11.1318C54.0723 10.9742 52.954 10.9302 44 10.9302C35.046 10.9302 33.8983 10.9302 30.3967 11.1318C27.6582 11.1885 24.9493 11.7092 22.385 12.6718C20.1925 13.5206 18.2014 14.8177 16.539 16.4802C14.8766 18.1426 13.5795 20.1337 12.7307 22.3262C11.7657 24.8897 11.2461 27.5992 11.1943 30.3378C11.0367 33.8688 10.989 34.9872 10.989 43.9412C10.989 52.8952 10.989 54.0392 11.1943 57.5445C11.2493 60.2872 11.7663 62.9932 12.7307 65.5635C13.5809 67.7553 14.879 69.7456 16.5419 71.4073C18.2049 73.0691 20.1962 74.3656 22.3887 75.2142C24.9459 76.2159 27.6554 76.7739 30.4003 76.8642C33.9313 77.0218 35.0497 77.0695 44.0037 77.0695C52.9577 77.0695 54.1053 77.0695 57.607 76.8642C60.3466 76.8102 63.057 76.2907 65.6223 75.3278C67.8139 74.4775 69.8042 73.1798 71.4664 71.5176C73.1286 69.8554 74.4263 67.865 75.2767 65.6735C76.241 63.1068 76.758 60.4008 76.813 57.6545C76.9707 54.1272 77.0183 53.0088 77.0183 44.0512C77.011 35.0972 77.011 33.9605 76.8057 30.4515ZM43.978 60.8738C34.6133 60.8738 27.027 53.2875 27.027 43.9228C27.027 34.5582 34.6133 26.9718 43.978 26.9718C48.4737 26.9718 52.7852 28.7577 55.9642 31.9367C59.1431 35.1156 60.929 39.4272 60.929 43.9228C60.929 48.4185 59.1431 52.7301 55.9642 55.909C52.7852 59.0879 48.4737 60.8738 43.978 60.8738ZM61.6037 30.2975C61.0845 30.298 60.5703 30.1961 60.0905 29.9976C59.6107 29.7991 59.1748 29.508 58.8076 29.1409C58.4405 28.7737 58.1494 28.3378 57.9509 27.858C57.7524 27.3783 57.6505 26.864 57.651 26.3448C57.651 25.826 57.7532 25.3123 57.9517 24.8329C58.1503 24.3536 58.4413 23.9181 58.8082 23.5512C59.175 23.1843 59.6106 22.8933 60.0899 22.6947C60.5693 22.4962 61.083 22.394 61.6018 22.394C62.1207 22.394 62.6344 22.4962 63.1138 22.6947C63.5931 22.8933 64.0286 23.1843 64.3955 23.5512C64.7624 23.9181 65.0534 24.3536 65.2519 24.8329C65.4505 25.3123 65.5527 25.826 65.5527 26.3448C65.5527 28.5302 63.7853 30.2975 61.6037 30.2975Z" fill="white"/>
<path d="M43.978 54.9341C50.0592 54.9341 54.989 50.0043 54.989 43.9231C54.989 37.8419 50.0592 32.9121 43.978 32.9121C37.8968 32.9121 32.967 37.8419 32.967 43.9231C32.967 50.0043 37.8968 54.9341 43.978 54.9341Z" fill="white"/>
</svg>
