<svg width="50" height="50" viewBox="0 0 64 74" fill="none" xmlns="http://www.w3.org/2000/svg">
<path d="M60.1001 17.1967C56.445 16.3929 53.1385 14.4519 50.655 11.6523C48.1715 8.85261 46.6388 5.33819 46.2767 1.61333V0H33.6267V50.1233C33.6293 52.3474 32.932 54.5159 31.6337 56.3216C30.3353 58.1274 28.5017 59.4788 26.3926 60.1846C24.2835 60.8903 22.0058 60.9146 19.8821 60.2539C17.7585 59.5932 15.8965 58.281 14.5601 56.5033C13.3627 54.9297 12.6295 53.0525 12.4434 51.084C12.2573 49.1154 12.6257 47.1341 13.5069 45.364C14.3882 43.5939 15.7471 42.1057 17.43 41.0676C19.1129 40.0296 21.0527 39.4831 23.0301 39.49C24.1236 39.4837 25.2117 39.6445 26.2567 39.9667V27.1333C25.0406 26.9827 23.8151 26.9215 22.5901 26.95C18.0775 27.0706 13.6981 28.5044 9.98804 31.076C6.27798 33.6475 3.39833 37.2452 1.70171 41.4283C0.00509201 45.6115 -0.43485 50.1987 0.435758 54.628C1.30637 59.0574 3.44973 63.1368 6.6034 66.3667C9.83551 69.6527 13.9715 71.9038 18.4859 72.8339C23.0003 73.764 27.6893 73.3311 31.9571 71.5902C36.2249 69.8492 39.8789 66.8789 42.4547 63.0566C45.0305 59.2343 46.4119 54.7325 46.4234 50.1233V24.4567C51.5254 28.1011 57.6434 30.0507 63.9134 30.03V17.5633C62.6818 17.5684 61.453 17.4455 60.2467 17.1967H60.1001Z" fill="white"/>
</svg>
